# Blender 4.3.2
# www.blender.org
mtllib Framework Tiles - Black Slatted Tile.mtl
o Whole_Black_Plate
v 68.880226 -1.129813 -16.985245
v 68.880226 -1.129813 -45.484226
v 97.382179 -1.129813 -16.985245
v 73.553970 -1.129813 -16.985245
v 73.553970 -1.129813 -45.484226
v 97.382179 -1.129813 -45.484226
v 68.880226 -3.977318 -16.985245
v 68.880226 -3.977318 -45.484226
v 97.382179 -3.977318 -16.985245
v 73.553970 -3.977318 -16.985245
v 73.553970 -3.977318 -45.484226
v 97.382179 -3.977317 -45.484226
v 76.244957 -1.129813 -45.026199
v 74.572144 -1.129813 -45.026199
v 79.399948 -1.129813 -45.026199
v 77.727150 -1.129813 -45.026199
v 82.554955 -1.129813 -45.026199
v 80.882141 -1.129813 -45.026199
v 85.709946 -1.129813 -45.026199
v 84.037155 -1.129813 -45.026199
v 87.192154 -1.129813 -45.026199
v 88.864960 -1.129813 -45.026199
v 90.347153 -1.129813 -45.026199
v 92.019951 -1.129813 -45.026199
v 93.502144 -1.129813 -45.026199
v 95.174957 -1.129813 -45.026199
v 96.657150 -1.129813 -45.026199
v 96.657150 -1.129813 -17.866306
v 76.244957 -3.977318 -45.026199
v 74.572144 -3.977318 -45.026199
v 79.399948 -3.977318 -45.026199
v 77.727150 -3.977318 -45.026199
v 82.554955 -3.977318 -45.026199
v 80.882141 -3.977318 -45.026199
v 85.709946 -3.977318 -45.026199
v 84.037155 -3.977318 -45.026199
v 88.864960 -3.977318 -45.026199
v 87.192154 -3.977318 -45.026199
v 92.019951 -3.977317 -45.026199
v 90.347153 -3.977318 -45.026199
v 95.174957 -3.977317 -45.026199
v 93.502144 -3.977317 -45.026199
v 96.657150 -3.977317 -45.026199
v 96.657150 -3.977318 -17.866306
v 71.417152 -3.977318 -17.866306
v 71.417152 -1.129813 -17.866306
v 69.934952 -3.977318 -17.866306
v 69.934952 -1.129813 -17.866306
v 69.934952 -3.977318 -44.429604
v 69.934952 -3.977318 -45.026199
v 69.934952 -1.129813 -44.429604
v 69.934952 -1.129813 -45.026199
v 71.417152 -3.977318 -45.026199
v 71.417152 -1.129813 -45.026199
v 71.417152 -1.129813 -42.947563
v 71.417152 -3.977318 -42.947563
v 74.572144 -3.977318 -17.866306
v 74.572144 -1.129813 -17.866306
v 73.553970 -3.977318 -17.866306
v 73.553970 -1.129813 -17.866306
v 73.089951 -3.977318 -17.866306
v 73.089951 -1.129813 -17.866306
v 73.089951 -3.977318 -41.274933
v 73.089951 -3.977318 -45.026199
v 73.089951 -1.129813 -41.274933
v 73.089951 -1.129813 -45.026199
v 73.553970 -3.977318 -45.026199
v 73.553970 -1.129813 -45.026199
v 74.572144 -3.977318 -39.792900
v 74.572144 -1.129813 -39.792900
v 77.727150 -3.977318 -17.866306
v 77.727150 -1.129813 -17.866306
v 76.244957 -3.977318 -17.866306
v 76.244957 -1.129813 -17.866306
v 76.244957 -3.977318 -38.120262
v 76.244957 -1.129813 -38.120262
v 77.727150 -3.977318 -36.638226
v 77.727150 -1.129813 -36.638226
v 80.882141 -3.977318 -17.866306
v 80.882141 -1.129813 -17.866306
v 79.399948 -3.977318 -17.866306
v 79.399948 -1.129813 -17.866306
v 79.399948 -3.977318 -34.965595
v 79.399948 -1.129813 -34.965595
v 80.882141 -3.977318 -33.483559
v 80.882141 -1.129813 -33.483559
v 84.037155 -3.977318 -17.866306
v 84.037155 -1.129813 -17.866306
v 82.554955 -3.977318 -17.866306
v 82.554955 -1.129813 -17.866306
v 82.554955 -3.977318 -31.810923
v 82.554955 -1.129813 -31.810923
v 84.037155 -3.977318 -30.328878
v 84.037155 -1.129813 -30.328878
v 87.192154 -3.977318 -17.866306
v 87.192154 -1.129813 -17.866306
v 85.709946 -3.977318 -17.866306
v 85.709946 -1.129813 -17.866306
v 85.709946 -3.977318 -28.656256
v 85.709946 -1.129813 -28.656256
v 87.192154 -3.977318 -27.174206
v 87.192154 -1.129813 -27.174206
v 90.347153 -3.977318 -17.866306
v 90.347153 -1.129813 -17.866306
v 88.864960 -3.977318 -17.866306
v 88.864960 -1.129813 -17.866306
v 88.864960 -3.977318 -25.501575
v 88.864960 -1.129813 -25.501575
v 90.347153 -3.977318 -24.019539
v 90.347153 -1.129813 -24.019539
v 93.502144 -3.977318 -17.866306
v 93.502144 -1.129813 -17.866306
v 92.019951 -3.977318 -17.866306
v 92.019951 -1.129813 -17.866306
v 92.019951 -3.977318 -22.346910
v 92.019951 -1.129813 -22.346910
v 93.502144 -3.977318 -20.864874
v 93.502144 -1.129813 -20.864874
v 96.501022 -1.129813 -17.866306
v 96.501022 -3.977318 -17.866306
v 95.174957 -3.977318 -17.866306
v 95.174957 -1.129813 -17.866306
v 95.174957 -1.129813 -19.192238
v 95.174957 -3.977318 -19.192238
vn -0.0000 1.0000 -0.0000
vn -0.0000 -1.0000 -0.0000
vn -1.0000 -0.0000 -0.0000
vn -0.0000 -0.0000 1.0000
vn -0.0000 -0.0000 -1.0000
vn 1.0000 -0.0000 -0.0000
vt 0.163980 1.000000
vt 0.000000 1.000000
vt 0.089009 0.983928
vt 0.163980 0.000000
vt 0.479782 0.030916
vt 0.421091 0.030916
vt 0.089009 0.030916
vt 0.037006 0.030916
vt 0.000000 0.000000
vt 1.000000 1.000000
vt 0.642480 0.983928
vt 0.701171 0.983928
vt 0.147700 0.983928
vt 0.089009 0.910991
vt 0.089009 0.983928
vt 0.531786 0.030916
vt 0.753174 0.983928
vt 1.000000 0.000000
vt 0.382259 0.000000
vt 0.401693 0.000000
vt 0.382259 0.250000
vt 0.401693 0.250000
vt 0.401693 0.500000
vt 0.382259 0.500000
vt 0.401693 0.750000
vt 0.382259 0.750000
vt 0.163980 0.983928
vt 0.037006 0.962994
vt 0.037006 0.983928
vt 0.089009 0.910991
vt 0.147700 0.852300
vt 0.199703 0.030916
vt 0.163980 0.030915
vt 0.590476 0.030916
vt 0.969084 0.030916
vt 0.922559 0.030916
vt 0.922559 0.077441
vt 0.863868 0.030916
vt 0.863868 0.136132
vt 0.258394 0.741606
vt 0.199703 0.800297
vt 0.811865 0.030916
vt 0.811865 0.188135
vt 0.753174 0.030916
vt 0.753174 0.246826
vt 0.258394 0.030916
vt 0.701171 0.030916
vt 0.701171 0.298829
vt 0.642480 0.030916
vt 0.642480 0.357520
vt 0.369088 0.630912
vt 0.310397 0.689603
vt 0.310397 0.030916
vt 0.590476 0.409524
vt 0.531786 0.030916
vt 0.531786 0.468214
vt 0.369088 0.030916
vt 0.479782 0.520218
vt 0.421091 0.578909
vt 0.037006 0.962994
vt 0.163980 0.030916
vt 0.147700 0.030916
vt 0.974562 0.030916
vt 0.969084 0.030916
vt 0.590476 0.983928
vt 0.199703 0.983928
vt 0.199703 0.800297
vt 0.258394 0.983928
vt 0.258394 0.741606
vt 0.974562 0.983928
vt 0.310397 0.983928
vt 0.369088 0.983928
vt 0.922559 0.983928
vt 0.922559 0.077441
vt 0.863868 0.983928
vt 0.421091 0.983928
vt 0.421091 0.578909
vt 0.479782 0.983928
vt 0.479782 0.520218
vt 0.753174 0.246826
vt 0.811865 0.188135
vt 0.811865 0.983928
vt 0.531786 0.983928
vt 0.531786 0.468214
vt 0.590476 0.409524
vt 0.753174 0.983928
vt 0.642480 0.357520
vt 0.701171 0.298829
vt 0.590476 0.030916
vt 0.863868 0.030916
vt 0.199703 0.030916
vt 0.753174 0.030916
vt 0.369088 0.030916
vt 0.421091 0.030916
vt 0.974562 0.983928
vt 0.310397 0.983928
vt 0.922559 0.983928
vt 0.863868 0.983928
vt 0.479782 0.983928
vt 0.811865 0.983928
vt 0.642480 0.983928
s 0
usemtl Black
f 5/1/1 2/2/1 54/3/1
f 4/4/1 90/5/1 80/6/1
f 46/7/1 48/8/1 1/9/1
f 6/10/1 21/11/1 22/12/1
f 64/13/2 56/14/2 53/15/2
f 10/4/2 89/5/2 87/16/2
f 7/9/2 47/8/2 45/7/2
f 12/10/2 40/17/2 37/12/2
f 2/2/3 7/9/3 1/9/3
f 4/4/4 9/18/4 3/18/4
f 5/1/5 8/2/5 2/2/5
f 1/9/4 10/4/4 4/4/4
f 3/18/6 12/10/6 6/10/6
f 6/10/5 11/1/5 5/1/5
f 47/19/5 46/20/5 45/19/5
f 49/21/6 52/22/6 51/22/6
f 54/23/4 50/24/4 53/24/4
f 55/25/3 56/26/3 46/25/3
f 59/19/5 62/20/5 60/20/5
f 63/21/6 66/22/6 65/22/6
f 68/23/4 64/24/4 67/24/4
f 69/26/3 58/25/3 70/25/3
f 73/19/5 72/20/5 71/19/5
f 76/22/6 73/21/6 75/21/6
f 16/23/4 29/24/4 32/24/4
f 78/25/3 77/26/3 72/25/3
f 81/19/5 80/20/5 79/19/5
f 84/22/6 81/21/6 83/21/6
f 34/24/4 15/23/4 31/24/4
f 79/26/3 80/25/3 86/25/3
f 89/19/5 88/20/5 87/19/5
f 92/22/6 89/21/6 91/21/6
f 20/23/4 33/24/4 36/24/4
f 87/26/3 88/25/3 94/25/3
f 97/19/5 96/20/5 95/19/5
f 100/22/6 97/21/6 99/21/6
f 21/23/4 35/24/4 38/24/4
f 95/26/3 96/25/3 102/25/3
f 105/19/5 104/20/5 103/19/5
f 108/22/6 105/21/6 107/21/6
f 23/23/4 37/24/4 40/24/4
f 103/26/3 104/25/3 110/25/3
f 113/19/5 112/20/5 111/19/5
f 116/22/6 113/21/6 115/21/6
f 25/23/4 39/24/4 42/24/4
f 111/26/3 112/25/3 118/25/3
f 119/20/5 44/19/5 120/19/5
f 123/22/6 122/22/6 121/21/6
f 27/23/4 41/24/4 43/24/4
f 27/25/3 44/26/3 28/25/3
f 66/13/1 68/27/1 5/1/1
f 2/2/1 51/28/1 52/29/1
f 54/3/1 55/30/1 66/13/1
f 55/30/1 65/31/1 66/13/1
f 2/2/1 52/29/1 54/3/1
f 66/13/1 5/1/1 54/3/1
f 58/32/1 60/33/1 4/4/1
f 4/4/1 3/18/1 98/34/1
f 3/18/1 119/35/1 122/36/1
f 122/36/1 123/37/1 112/38/1
f 123/37/1 118/39/1 112/38/1
f 3/18/1 122/36/1 112/38/1
f 76/40/1 70/41/1 58/32/1
f 114/42/1 116/43/1 104/44/1
f 116/43/1 110/45/1 104/44/1
f 3/18/1 112/38/1 114/42/1
f 3/18/1 114/42/1 104/44/1
f 74/46/1 76/40/1 58/32/1
f 3/18/1 104/44/1 106/47/1
f 106/47/1 108/48/1 96/49/1
f 108/48/1 102/50/1 96/49/1
f 3/18/1 106/47/1 96/49/1
f 74/46/1 58/32/1 4/4/1
f 84/51/1 78/52/1 72/53/1
f 72/53/1 74/46/1 4/4/1
f 98/34/1 100/54/1 88/55/1
f 100/54/1 94/56/1 88/55/1
f 3/18/1 96/49/1 98/34/1
f 82/57/1 84/51/1 72/53/1
f 4/4/1 98/34/1 88/55/1
f 90/5/1 92/58/1 80/6/1
f 92/58/1 86/59/1 80/6/1
f 4/4/1 88/55/1 90/5/1
f 82/57/1 72/53/1 4/4/1
f 80/6/1 82/57/1 4/4/1
f 51/60/1 2/2/1 1/9/1
f 1/9/1 4/4/1 46/7/1
f 4/4/1 60/61/1 62/62/1
f 62/62/1 65/31/1 46/7/1
f 65/31/1 55/14/1 46/7/1
f 4/4/1 62/62/1 46/7/1
f 48/8/1 51/60/1 1/9/1
f 28/63/1 119/64/1 3/18/1
f 6/10/1 5/1/1 19/65/1
f 5/1/1 68/27/1 14/66/1
f 14/66/1 70/67/1 13/68/1
f 70/67/1 76/69/1 13/68/1
f 5/1/1 14/66/1 13/68/1
f 28/63/1 3/18/1 6/10/1
f 27/70/1 28/63/1 6/10/1
f 16/71/1 78/52/1 15/72/1
f 78/52/1 84/51/1 15/72/1
f 5/1/1 13/68/1 16/71/1
f 5/1/1 16/71/1 15/72/1
f 26/73/1 27/70/1 6/10/1
f 118/39/1 123/74/1 26/73/1
f 25/75/1 118/39/1 26/73/1
f 5/1/1 15/72/1 18/76/1
f 18/76/1 86/77/1 17/78/1
f 86/77/1 92/79/1 17/78/1
f 5/1/1 18/76/1 17/78/1
f 25/75/1 26/73/1 6/10/1
f 110/80/1 116/81/1 24/82/1
f 24/82/1 25/75/1 6/10/1
f 20/83/1 94/84/1 19/65/1
f 94/84/1 100/85/1 19/65/1
f 5/1/1 17/78/1 20/83/1
f 5/1/1 20/83/1 19/65/1
f 23/86/1 110/80/1 24/82/1
f 21/11/1 102/87/1 22/12/1
f 102/87/1 108/88/1 22/12/1
f 6/10/1 19/65/1 21/11/1
f 23/86/1 24/82/1 6/10/1
f 22/12/1 23/86/1 6/10/1
f 50/29/2 49/60/2 8/2/2
f 8/2/2 11/1/2 53/15/2
f 11/1/2 67/27/2 64/13/2
f 64/13/2 63/31/2 56/14/2
f 11/1/2 64/13/2 53/15/2
f 53/15/2 50/29/2 8/2/2
f 120/64/2 9/18/2 121/36/2
f 9/18/2 10/4/2 97/89/2
f 121/36/2 9/18/2 111/90/2
f 10/4/2 59/61/2 57/91/2
f 57/91/2 69/67/2 75/69/2
f 57/91/2 75/69/2 73/46/2
f 111/90/2 9/18/2 113/42/2
f 117/39/2 124/74/2 111/90/2
f 124/74/2 121/36/2 111/90/2
f 10/4/2 57/91/2 73/46/2
f 71/53/2 77/52/2 83/51/2
f 10/4/2 73/46/2 71/53/2
f 113/42/2 9/18/2 103/92/2
f 109/80/2 115/81/2 103/92/2
f 115/81/2 113/42/2 103/92/2
f 103/92/2 9/18/2 105/47/2
f 71/53/2 83/51/2 81/93/2
f 101/87/2 107/88/2 95/49/2
f 107/88/2 105/47/2 95/49/2
f 105/47/2 9/18/2 95/49/2
f 95/49/2 9/18/2 97/89/2
f 10/4/2 71/53/2 81/93/2
f 79/94/2 85/77/2 91/79/2
f 10/4/2 81/93/2 79/94/2
f 93/84/2 99/85/2 87/16/2
f 99/85/2 97/89/2 87/16/2
f 79/94/2 91/79/2 89/5/2
f 10/4/2 79/94/2 89/5/2
f 87/16/2 97/89/2 10/4/2
f 61/62/2 59/33/2 10/4/2
f 7/9/2 8/2/2 49/28/2
f 7/9/2 49/28/2 47/8/2
f 61/62/2 10/4/2 45/7/2
f 10/4/2 7/9/2 45/7/2
f 56/30/2 63/31/2 45/7/2
f 63/31/2 61/62/2 45/7/2
f 67/27/2 11/1/2 30/66/2
f 11/1/2 12/10/2 35/65/2
f 30/66/2 11/1/2 29/68/2
f 9/18/2 120/35/2 44/63/2
f 9/18/2 44/63/2 12/10/2
f 44/63/2 43/95/2 12/10/2
f 29/68/2 11/1/2 32/96/2
f 75/40/2 69/41/2 29/68/2
f 69/41/2 30/66/2 29/68/2
f 41/97/2 124/37/2 117/39/2
f 12/10/2 43/95/2 41/97/2
f 32/96/2 11/1/2 31/72/2
f 83/51/2 77/52/2 31/72/2
f 77/52/2 32/96/2 31/72/2
f 31/72/2 11/1/2 34/76/2
f 41/97/2 117/39/2 42/98/2
f 91/58/2 85/59/2 33/99/2
f 85/59/2 34/76/2 33/99/2
f 34/76/2 11/1/2 33/99/2
f 33/99/2 11/1/2 36/83/2
f 12/10/2 41/97/2 42/98/2
f 39/100/2 115/43/2 109/45/2
f 12/10/2 42/98/2 39/100/2
f 36/83/2 11/1/2 35/65/2
f 99/54/2 93/56/2 35/65/2
f 93/56/2 36/83/2 35/65/2
f 39/100/2 109/45/2 40/17/2
f 107/48/2 101/50/2 37/12/2
f 101/50/2 38/101/2 37/12/2
f 38/101/2 35/65/2 12/10/2
f 12/10/2 39/100/2 40/17/2
f 37/12/2 38/101/2 12/10/2
f 2/2/3 8/2/3 7/9/3
f 4/4/4 10/4/4 9/18/4
f 5/1/5 11/1/5 8/2/5
f 1/9/4 7/9/4 10/4/4
f 3/18/6 9/18/6 12/10/6
f 6/10/5 12/10/5 11/1/5
f 47/19/5 48/20/5 46/20/5
f 51/22/6 48/22/6 47/21/6
f 49/21/6 50/21/6 52/22/6
f 51/22/6 47/21/6 49/21/6
f 54/23/4 52/23/4 50/24/4
f 55/25/3 54/25/3 53/26/3
f 56/26/3 45/26/3 46/25/3
f 55/25/3 53/26/3 56/26/3
f 58/20/5 57/19/5 59/19/5
f 59/19/5 61/19/5 62/20/5
f 60/20/5 58/20/5 59/19/5
f 65/22/6 62/22/6 61/21/6
f 63/21/6 64/21/6 66/22/6
f 65/22/6 61/21/6 63/21/6
f 67/24/4 30/24/4 68/23/4
f 30/24/4 14/23/4 68/23/4
f 68/23/4 66/23/4 64/24/4
f 70/25/3 14/25/3 30/26/3
f 69/26/3 57/26/3 58/25/3
f 70/25/3 30/26/3 69/26/3
f 73/19/5 74/20/5 72/20/5
f 75/21/6 29/21/6 13/22/6
f 76/22/6 74/22/6 73/21/6
f 75/21/6 13/22/6 76/22/6
f 16/23/4 13/23/4 29/24/4
f 78/25/3 16/25/3 32/26/3
f 77/26/3 71/26/3 72/25/3
f 78/25/3 32/26/3 77/26/3
f 81/19/5 82/20/5 80/20/5
f 83/21/6 31/21/6 15/22/6
f 84/22/6 82/22/6 81/21/6
f 83/21/6 15/22/6 84/22/6
f 34/24/4 18/23/4 15/23/4
f 86/25/3 18/25/3 34/26/3
f 34/26/3 85/26/3 86/25/3
f 85/26/3 79/26/3 86/25/3
f 89/19/5 90/20/5 88/20/5
f 91/21/6 33/21/6 17/22/6
f 92/22/6 90/22/6 89/21/6
f 91/21/6 17/22/6 92/22/6
f 20/23/4 17/23/4 33/24/4
f 94/25/3 20/25/3 36/26/3
f 36/26/3 93/26/3 94/25/3
f 93/26/3 87/26/3 94/25/3
f 97/19/5 98/20/5 96/20/5
f 99/21/6 35/21/6 19/22/6
f 100/22/6 98/22/6 97/21/6
f 99/21/6 19/22/6 100/22/6
f 21/23/4 19/23/4 35/24/4
f 102/25/3 21/25/3 38/26/3
f 38/26/3 101/26/3 102/25/3
f 101/26/3 95/26/3 102/25/3
f 105/19/5 106/20/5 104/20/5
f 107/21/6 37/21/6 22/22/6
f 108/22/6 106/22/6 105/21/6
f 107/21/6 22/22/6 108/22/6
f 23/23/4 22/23/4 37/24/4
f 110/25/3 23/25/3 40/26/3
f 40/26/3 109/26/3 110/25/3
f 109/26/3 103/26/3 110/25/3
f 113/19/5 114/20/5 112/20/5
f 115/21/6 39/21/6 24/22/6
f 116/22/6 114/22/6 113/21/6
f 115/21/6 24/22/6 116/22/6
f 25/23/4 24/23/4 39/24/4
f 118/25/3 25/25/3 42/26/3
f 42/26/3 117/26/3 118/25/3
f 117/26/3 111/26/3 118/25/3
f 121/19/5 122/20/5 119/20/5
f 119/20/5 28/20/5 44/19/5
f 120/19/5 121/19/5 119/20/5
f 121/21/6 124/21/6 123/22/6
f 124/21/6 41/21/6 123/22/6
f 41/21/6 26/22/6 123/22/6
f 27/23/4 26/23/4 41/24/4
f 27/25/3 43/26/3 44/26/3
